<svg xmlns="http://www.w3.org/2000/svg" width="16" height="16" viewBox="0 0 92 96" fill="currentColor">
  <path d="M65.45 16.3c10.89 0 19.71 8.86 19.71 19.8v6.6l5.74 11.46a4.48 4.48 0 0 1-.01 3.6L85.16 69.1v6.6c0 10.94-8.83 19.8-19.71 19.8H26.02c-10.89 0-19.71-8.86-19.71-19.8v-6.6L.45 57.8a4.48 4.48 0 0 1-.01-3.67L6.31 42.7v-6.6c0-10.94 8.83-19.8 19.71-19.8h39.43zm-2.52 5.7H29.19c-9.32 0-16.87 7.56-16.87 16.88v5.62l-4.88 9.46a4.48 4.48 0 0 0 .01 3.68l4.87 9.36v5.62c0 9.32 7.55 16.88 16.87 16.88h33.74c9.32 0 16.87-7.55 16.87-16.88V67l4.77-9.39a4.48 4.48 0 0 0 0-3.61L79.8 44.5v-5.62C79.8 29.56 72.25 22 62.93 22z" fill-rule="nonzero"/>
  <circle cx="45.73" cy="11" r="11"/>
  <rect stroke="currentColor" stroke-width="8" x="31" y="44.5" width="5" height="22" rx="2.5"/>
  <rect stroke="currentColor" stroke-width="8" x="55" y="44.5" width="5" height="22" rx="2.5"/>
</svg>
