<svg width="16" height="16" viewBox="0 0 16 16" fill="none" xmlns="http://www.w3.org/2000/svg">
<path d="M4.66949 9.56637C4.66949 8.92122 4.13288 8.39823 3.47094 8.39823C2.809 8.39823 2.2724 8.92122 2.2724 9.56637C2.2724 10.2115 2.809 10.7345 3.47094 10.7345V11C2.65856 11 2 10.3581 2 9.56637C2 8.7746 2.65856 8.13274 3.47094 8.13274C4.28332 8.13274 4.94189 8.7746 4.94189 9.56637C4.94189 10.3581 4.28332 11 3.47094 11V10.7345C4.13288 10.7345 4.66949 10.2115 4.66949 9.56637Z" fill="currentColor"/>
<path d="M3.90678 9.59292C3.90678 9.81286 3.72385 9.99115 3.49818 9.99115C3.27252 9.99115 3.08959 9.81286 3.08959 9.59292C3.08959 9.37298 3.27252 9.19469 3.49818 9.19469C3.72385 9.19469 3.90678 9.37298 3.90678 9.59292Z" fill="currentColor"/>
<path d="M3.8523 9.59292C3.8523 9.40231 3.69376 9.24779 3.49818 9.24779C3.30261 9.24779 3.14407 9.40231 3.14407 9.59292C3.14407 9.78353 3.30261 9.93805 3.49818 9.93805V9.99115C3.27252 9.99115 3.08959 9.81286 3.08959 9.59292C3.08959 9.37298 3.27252 9.19469 3.49818 9.19469C3.72385 9.19469 3.90678 9.37298 3.90678 9.59292C3.90678 9.81286 3.72385 9.99115 3.49818 9.99115V9.93805C3.69376 9.93805 3.8523 9.78353 3.8523 9.59292Z" fill="currentColor"/>
<path d="M4.66949 6.43363C4.66949 5.78848 4.13288 5.26549 3.47094 5.26549C2.809 5.26549 2.2724 5.78848 2.2724 6.43363C2.2724 7.07878 2.809 7.60177 3.47094 7.60177V7.86726C2.65856 7.86726 2 7.2254 2 6.43363C2 5.64186 2.65856 5 3.47094 5C4.28332 5 4.94189 5.64186 4.94189 6.43363C4.94189 7.2254 4.28332 7.86726 3.47094 7.86726V7.60177C4.13288 7.60177 4.66949 7.07878 4.66949 6.43363Z" fill="currentColor"/>
<path d="M3.90678 6.46018C3.90678 6.68011 3.72385 6.85841 3.49818 6.85841C3.27252 6.85841 3.08959 6.68011 3.08959 6.46018C3.08959 6.24024 3.27252 6.06195 3.49818 6.06195C3.72385 6.06195 3.90678 6.24024 3.90678 6.46018Z" fill="currentColor"/>
<path d="M3.8523 6.46018C3.8523 6.26957 3.69376 6.11504 3.49818 6.11504C3.30261 6.11504 3.14407 6.26957 3.14407 6.46018C3.14407 6.65079 3.30261 6.80531 3.49818 6.80531V6.85841C3.27252 6.85841 3.08959 6.68011 3.08959 6.46018C3.08959 6.24024 3.27252 6.06195 3.49818 6.06195C3.72385 6.06195 3.90678 6.24024 3.90678 6.46018C3.90678 6.68011 3.72385 6.85841 3.49818 6.85841V6.80531C3.69376 6.80531 3.8523 6.65079 3.8523 6.46018Z" fill="currentColor"/>
<path d="M8.04722 9.56637C8.04722 8.92122 7.51061 8.39823 6.84867 8.39823C6.18673 8.39823 5.65012 8.92122 5.65012 9.56637C5.65012 10.2115 6.18673 10.7345 6.84867 10.7345V11C6.03629 11 5.37772 10.3581 5.37772 9.56637C5.37772 8.7746 6.03629 8.13274 6.84867 8.13274C7.66105 8.13274 8.31961 8.7746 8.31961 9.56637C8.31961 10.3581 7.66105 11 6.84867 11V10.7345C7.51061 10.7345 8.04722 10.2115 8.04722 9.56637Z" fill="currentColor"/>
<path d="M7.2845 9.59292C7.2845 9.81286 7.10157 9.99115 6.87591 9.99115C6.65025 9.99115 6.46731 9.81286 6.46731 9.59292C6.46731 9.37298 6.65025 9.19469 6.87591 9.19469C7.10157 9.19469 7.2845 9.37298 7.2845 9.59292Z" fill="currentColor"/>
<path d="M7.23002 9.59292C7.23002 9.40231 7.07148 9.24779 6.87591 9.24779C6.68033 9.24779 6.52179 9.40231 6.52179 9.59292C6.52179 9.78353 6.68033 9.93805 6.87591 9.93805V9.99115C6.65025 9.99115 6.46731 9.81286 6.46731 9.59292C6.46731 9.37298 6.65025 9.19469 6.87591 9.19469C7.10157 9.19469 7.2845 9.37298 7.2845 9.59292C7.2845 9.81286 7.10157 9.99115 6.87591 9.99115V9.93805C7.07148 9.93805 7.23002 9.78353 7.23002 9.59292Z" fill="currentColor"/>
<path d="M8.04722 6.43363C8.04722 5.78848 7.51061 5.26549 6.84867 5.26549C6.18673 5.26549 5.65012 5.78848 5.65012 6.43363C5.65012 7.07878 6.18673 7.60177 6.84867 7.60177V7.86726C6.03629 7.86726 5.37772 7.2254 5.37772 6.43363C5.37772 5.64186 6.03629 5 6.84867 5C7.66105 5 8.31961 5.64186 8.31961 6.43363C8.31961 7.2254 7.66105 7.86726 6.84867 7.86726V7.60177C7.51061 7.60177 8.04722 7.07878 8.04722 6.43363Z" fill="currentColor"/>
<path d="M7.2845 6.46018C7.2845 6.68011 7.10157 6.85841 6.87591 6.85841C6.65025 6.85841 6.46731 6.68011 6.46731 6.46018C6.46731 6.24024 6.65025 6.06195 6.87591 6.06195C7.10157 6.06195 7.2845 6.24024 7.2845 6.46018Z" fill="currentColor"/>
<path d="M7.23002 6.46018C7.23002 6.26957 7.07148 6.11504 6.87591 6.11504C6.68033 6.11504 6.52179 6.26957 6.52179 6.46018C6.52179 6.65079 6.68033 6.80531 6.87591 6.80531V6.85841C6.65025 6.85841 6.46731 6.68011 6.46731 6.46018C6.46731 6.24024 6.65025 6.06195 6.87591 6.06195C7.10157 6.06195 7.2845 6.24024 7.2845 6.46018C7.2845 6.68011 7.10157 6.85841 6.87591 6.85841V6.80531C7.07148 6.80531 7.23002 6.65079 7.23002 6.46018Z" fill="currentColor"/>
<path d="M11.207 9.56637C11.207 8.92122 10.6704 8.39823 10.0085 8.39823C9.34653 8.39823 8.80993 8.92122 8.80993 9.56637C8.80993 10.2115 9.34653 10.7345 10.0085 10.7345V11C9.19609 11 8.53753 10.3581 8.53753 9.56637C8.53753 8.7746 9.19609 8.13274 10.0085 8.13274C10.8209 8.13274 11.4794 8.7746 11.4794 9.56637C11.4794 10.3581 10.8209 11 10.0085 11V10.7345C10.6704 10.7345 11.207 10.2115 11.207 9.56637Z" fill="currentColor"/>
<path d="M10.4443 9.59292C10.4443 9.81286 10.2614 9.99115 10.0357 9.99115C9.81005 9.99115 9.62712 9.81286 9.62712 9.59292C9.62712 9.37298 9.81005 9.19469 10.0357 9.19469C10.2614 9.19469 10.4443 9.37298 10.4443 9.59292Z" fill="currentColor"/>
<path d="M10.3898 9.59292C10.3898 9.40231 10.2313 9.24779 10.0357 9.24779C9.84014 9.24779 9.6816 9.40231 9.6816 9.59292C9.6816 9.78353 9.84014 9.93805 10.0357 9.93805V9.99115C9.81005 9.99115 9.62712 9.81286 9.62712 9.59292C9.62712 9.37298 9.81005 9.19469 10.0357 9.19469C10.2614 9.19469 10.4443 9.37298 10.4443 9.59292C10.4443 9.81286 10.2614 9.99115 10.0357 9.99115V9.93805C10.2313 9.93805 10.3898 9.78353 10.3898 9.59292Z" fill="currentColor"/>
<path d="M11.207 6.43363C11.207 5.78848 10.6704 5.26549 10.0085 5.26549C9.34653 5.26549 8.80993 5.78848 8.80993 6.43363C8.80993 7.07878 9.34653 7.60177 10.0085 7.60177V7.86726C9.19609 7.86726 8.53753 7.2254 8.53753 6.43363C8.53753 5.64186 9.19609 5 10.0085 5C10.8209 5 11.4794 5.64186 11.4794 6.43363C11.4794 7.2254 10.8209 7.86726 10.0085 7.86726V7.60177C10.6704 7.60177 11.207 7.07878 11.207 6.43363Z" fill="currentColor"/>
<path d="M10.4443 6.46018C10.4443 6.68011 10.2614 6.85841 10.0357 6.85841C9.81005 6.85841 9.62712 6.68011 9.62712 6.46018C9.62712 6.24024 9.81005 6.06195 10.0357 6.06195C10.2614 6.06195 10.4443 6.24024 10.4443 6.46018Z" fill="currentColor"/>
<path d="M10.3898 6.46018C10.3898 6.26957 10.2313 6.11504 10.0357 6.11504C9.84014 6.11504 9.6816 6.26957 9.6816 6.46018C9.6816 6.65079 9.84014 6.80531 10.0357 6.80531V6.85841C9.81005 6.85841 9.62712 6.68011 9.62712 6.46018C9.62712 6.24024 9.81005 6.06195 10.0357 6.06195C10.2614 6.06195 10.4443 6.24024 10.4443 6.46018C10.4443 6.68011 10.2614 6.85841 10.0357 6.85841V6.80531C10.2313 6.80531 10.3898 6.65079 10.3898 6.46018Z" fill="currentColor"/>
<path d="M14.5847 9.56637C14.5847 8.92122 14.0481 8.39823 13.3862 8.39823C12.7243 8.39823 12.1877 8.92122 12.1877 9.56637C12.1877 10.2115 12.7243 10.7345 13.3862 10.7345V11C12.5738 11 11.9153 10.3581 11.9153 9.56637C11.9153 8.7746 12.5738 8.13274 13.3862 8.13274C14.1986 8.13274 14.8571 8.7746 14.8571 9.56637C14.8571 10.3581 14.1986 11 13.3862 11V10.7345C14.0481 10.7345 14.5847 10.2115 14.5847 9.56637Z" fill="currentColor"/>
<path d="M13.822 9.59292C13.822 9.81286 13.6391 9.99115 13.4134 9.99115C13.1878 9.99115 13.0048 9.81286 13.0048 9.59292C13.0048 9.37298 13.1878 9.19469 13.4134 9.19469C13.6391 9.19469 13.822 9.37298 13.822 9.59292Z" fill="currentColor"/>
<path d="M13.7676 9.59292C13.7676 9.40231 13.609 9.24779 13.4134 9.24779C13.2179 9.24779 13.0593 9.40231 13.0593 9.59292C13.0593 9.78353 13.2179 9.93805 13.4134 9.93805V9.99115C13.1878 9.99115 13.0048 9.81286 13.0048 9.59292C13.0048 9.37298 13.1878 9.19469 13.4134 9.19469C13.6391 9.19469 13.822 9.37298 13.822 9.59292C13.822 9.81286 13.6391 9.99115 13.4134 9.99115V9.93805C13.609 9.93805 13.7676 9.78353 13.7676 9.59292Z" fill="currentColor"/>
<path d="M14.5847 6.43363C14.5847 5.78848 14.0481 5.26549 13.3862 5.26549C12.7243 5.26549 12.1877 5.78848 12.1877 6.43363C12.1877 7.07878 12.7243 7.60177 13.3862 7.60177V7.86726C12.5738 7.86726 11.9153 7.2254 11.9153 6.43363C11.9153 5.64186 12.5738 5 13.3862 5C14.1986 5 14.8571 5.64186 14.8571 6.43363C14.8571 7.2254 14.1986 7.86726 13.3862 7.86726V7.60177C14.0481 7.60177 14.5847 7.07878 14.5847 6.43363Z" fill="currentColor"/>
<path d="M13.822 6.46018C13.822 6.68011 13.6391 6.85841 13.4134 6.85841C13.1878 6.85841 13.0048 6.68011 13.0048 6.46018C13.0048 6.24024 13.1878 6.06195 13.4134 6.06195C13.6391 6.06195 13.822 6.24024 13.822 6.46018Z" fill="currentColor"/>
<path d="M13.7676 6.46018C13.7676 6.26957 13.609 6.11504 13.4134 6.11504C13.2179 6.11504 13.0593 6.26957 13.0593 6.46018C13.0593 6.65079 13.2179 6.80531 13.4134 6.80531V6.85841C13.1878 6.85841 13.0048 6.68011 13.0048 6.46018C13.0048 6.24024 13.1878 6.06195 13.4134 6.06195C13.6391 6.06195 13.822 6.24024 13.822 6.46018C13.822 6.68011 13.6391 6.85841 13.4134 6.85841V6.80531C13.609 6.80531 13.7676 6.65079 13.7676 6.46018Z" fill="currentColor"/>
</svg>
