<svg width="16" height="16" viewBox="0 0 16 16" fill="none" xmlns="http://www.w3.org/2000/svg">
<path d="M3.12109 11.0078H1.99902V5.49316H3.12109V11.0078ZM3.7041 5.49316C4.91979 5.49316 5.31142 5.57449 5.80762 5.7373C6.50208 5.97365 6.85299 6.40958 6.86133 7.04492V9.45605C6.86125 10.207 6.37767 10.6797 5.41016 10.874C4.95546 10.9633 4.69632 11.0078 3.7041 11.0078V10.6064C4.72131 10.6064 4.95994 10.5507 5.34863 10.4404C5.91072 10.2671 6.19576 9.93907 6.2041 9.45605V7.04492C6.20402 6.4883 5.83211 6.13886 5.08789 5.99707C4.74057 5.93405 4.58897 5.89978 3.7041 5.89453V5.49316ZM9.16797 5.49316V11.0078H8.0459V5.49316H9.16797ZM14 6.79297V11.0078H12.8779V8.0791L13.8877 6.79297H14ZM14 5.49316V5.7373L11.3594 8.97852H10.7852L9.74219 6.94531V6.07812H9.86719L11.0723 8.33203L13.4258 5.49316H14Z" fill="currentColor"/>
</svg>
